<?xml version="1.0" encoding="utf-8"?>
<!-- Generator: Adobe Illustrator 21.0.2, SVG Export Plug-In . SVG Version: 6.00 Build 0)  -->
<svg version="1.1" id="Layer_1" xmlns="http://www.w3.org/2000/svg" xmlns:xlink="http://www.w3.org/1999/xlink" x="0px" y="0px"
	 viewBox="0 0 54.4 41.6" style="enable-background:new 0 0 54.4 41.6;" xml:space="preserve">
<style type="text/css">
	.st0{fill:#FFFFFF;}
</style>
<g id="_x31_5">
	<g>
		<path class="st0" d="M38.6,2.7c0-0.8-0.7-1.5-1.5-1.5c-0.8,0-1.5,0.7-1.5,1.5V6c0,0.8,0.7,1.5,1.5,1.5c0.8,0,1.5-0.7,1.5-1.5V2.7z
			"/>
		<path class="st0" d="M27,6.3c-0.6-0.6-1.5-0.6-2.1,0s-0.6,1.5,0,2.1l2.3,2.3c0.6,0.6,1.5,0.6,2.1,0c0.6-0.6,0.6-1.5,0-2.1L27,6.3z
			"/>
		<path class="st0" d="M47.2,30.8c0.6,0.6,1.5,0.6,2.1,0c0.6-0.6,0.6-1.5,0-2.1L47,26.3c-0.6-0.6-1.5-0.6-2.1,0
			c-0.6,0.6-0.6,1.5,0,2.1L47.2,30.8z"/>
		<path class="st0" d="M52.9,20c0.8,0,1.5-0.7,1.5-1.5s-0.7-1.5-1.5-1.5h-3.3c-0.8,0-1.5,0.7-1.5,1.5s0.7,1.5,1.5,1.5H52.9z"/>
		<path class="st0" d="M49.4,8.4c0.6-0.6,0.6-1.5,0-2.1c-0.6-0.6-1.5-0.6-2.1,0l-2.3,2.3c-0.6,0.6-0.6,1.5,0,2.1
			c0.6,0.6,1.5,0.6,2.1,0L49.4,8.4z"/>
		<path class="st0" d="M46.4,18.6c0-5.1-4.1-9.3-9.3-9.3c-3,0-5.7,1.5-7.4,3.7c-1.9-0.7-3.7-0.6-4.6-0.4c-2-2-5.4-3.5-8.7-3.5
			c-6.7,0-12.2,5.2-12.7,11.8C1.5,22.2,0,24.5,0,27.3c0,4.1,3.3,7.4,7.3,7.4h1c0.7,0,1.2-0.7,1.2-1.4c0-0.8-0.6-1.4-1.4-1.4H8
			c-2.7,0-4.8-2-4.8-4.6c0-2.1,1.3-3.9,3.4-4.6c0.2-9.9,9-10.4,9.9-10.4c2.9,0,5.7,1.4,7.6,3.5c3.7-1.2,8.8,1.6,8.2,7.2
			c1.4-0.6,2.9-0.5,3.3-0.5c2.1,0,4.6,1.8,4.6,4.8c0,2.5-2.1,4.6-4.6,4.6h-0.2c-0.8,0-1.4,0.6-1.4,1.4c0,0.8,0.6,1.4,1.4,1.4h0.2
			c4.2,0,7.6-3.4,7.6-7.6c0,0,0-0.6-0.2-1.4C45.1,24,46.4,21.4,46.4,18.6z M41.9,22.7c-1.1-1.7-3-3.2-6.6-3.2c-0.6-2.4-1.7-4-3-5.1
			c1.2-1.4,2.9-2.2,4.8-2.2c3.5,0,6.3,2.8,6.3,6.3C43.4,20.1,42.9,21.6,41.9,22.7z"/>
	</g>
	<g>
		<path class="st0" d="M24.1,33.7l-0.9-0.5l0.9-0.5c0.3-0.2,0.4-0.6,0.2-0.9s-0.6-0.4-0.9-0.2L22.4,32v-1.1c0-0.4-0.3-0.7-0.7-0.7
			c-0.4,0-0.7,0.3-0.7,0.7V32l-0.9-0.5c-0.3-0.2-0.7-0.1-0.9,0.2c-0.2,0.3-0.1,0.7,0.2,0.9l0.9,0.5l-0.9,0.5
			c-0.3,0.2-0.4,0.6-0.2,0.9c0.2,0.3,0.6,0.4,0.9,0.2l0.9-0.5v1.1c0,0.4,0.3,0.7,0.7,0.7c0.4,0,0.7-0.3,0.7-0.7v-1.1l0.9,0.5
			c0.3,0.2,0.7,0.1,0.9-0.2C24.5,34.3,24.4,33.9,24.1,33.7z"/>
		<path class="st0" d="M31.5,33.7l-0.9-0.5l0.9-0.5c0.3-0.2,0.4-0.6,0.2-0.9c-0.2-0.3-0.6-0.4-0.9-0.2L29.8,32v-1.1
			c0-0.4-0.3-0.7-0.7-0.7s-0.7,0.3-0.7,0.7V32l-0.9-0.5c-0.3-0.2-0.7-0.1-0.9,0.2s-0.1,0.7,0.2,0.9l0.9,0.5l-0.9,0.5
			c-0.3,0.2-0.4,0.6-0.2,0.9c0.2,0.3,0.6,0.4,0.9,0.2l0.9-0.5v1.1c0,0.4,0.3,0.7,0.7,0.7s0.7-0.3,0.7-0.7v-1.1l0.9,0.5
			c0.3,0.2,0.7,0.1,0.9-0.2C31.9,34.3,31.8,33.9,31.5,33.7z"/>
		<path class="st0" d="M16.6,33.7l-0.9-0.5l0.9-0.5c0.3-0.2,0.4-0.6,0.2-0.9c-0.2-0.3-0.6-0.4-0.9-0.2L15,32v-1.1
			c0-0.4-0.3-0.7-0.7-0.7c-0.4,0-0.7,0.3-0.7,0.7V32l-0.9-0.5c-0.3-0.2-0.7-0.1-0.9,0.2c-0.2,0.3-0.1,0.7,0.2,0.9l0.9,0.5L12,33.7
			c-0.3,0.2-0.4,0.6-0.2,0.9c0.2,0.3,0.6,0.4,0.9,0.2l0.9-0.5v1.1c0,0.4,0.3,0.7,0.7,0.7c0.4,0,0.7-0.3,0.7-0.7v-1.1l0.9,0.5
			c0.3,0.2,0.7,0.1,0.9-0.2C17.1,34.3,17,33.9,16.6,33.7z"/>
		<path class="st0" d="M20.2,40.4l-0.9-0.5l0.9-0.5c0.3-0.2,0.4-0.6,0.2-0.9c-0.2-0.3-0.6-0.4-0.9-0.2l-0.9,0.5v-1.1
			c0-0.4-0.3-0.7-0.7-0.7c-0.4,0-0.7,0.3-0.7,0.7v1.1l-0.9-0.5c-0.3-0.2-0.7-0.1-0.9,0.2c-0.2,0.3-0.1,0.7,0.2,0.9l0.9,0.5l-0.9,0.5
			c-0.3,0.2-0.4,0.6-0.2,0.9c0.2,0.3,0.6,0.4,0.9,0.2l0.9-0.5v1.1c0,0.4,0.3,0.7,0.7,0.7c0.4,0,0.7-0.3,0.7-0.7V41l0.9,0.5
			c0.3,0.2,0.7,0.1,0.9-0.2C20.6,41,20.5,40.6,20.2,40.4z"/>
		<path class="st0" d="M27.3,40.4l-0.9-0.5l0.9-0.5c0.3-0.2,0.4-0.6,0.2-0.9c-0.2-0.3-0.6-0.4-0.9-0.2l-0.9,0.5v-1.1
			c0-0.4-0.3-0.7-0.7-0.7c-0.4,0-0.7,0.3-0.7,0.7v1.1l-0.9-0.5c-0.3-0.2-0.7-0.1-0.9,0.2c-0.2,0.3-0.1,0.7,0.2,0.9l0.9,0.5l-0.9,0.5
			c-0.3,0.2-0.4,0.6-0.2,0.9c0.2,0.3,0.6,0.4,0.9,0.2l0.9-0.5v1.1c0,0.4,0.3,0.7,0.7,0.7c0.4,0,0.7-0.3,0.7-0.7V41l0.9,0.5
			c0.3,0.2,0.7,0.1,0.9-0.2C27.7,41,27.6,40.6,27.3,40.4z"/>
	</g>
</g>
</svg>
