<?xml version="1.0" encoding="utf-8"?>
<!-- Generator: Adobe Illustrator 21.0.2, SVG Export Plug-In . SVG Version: 6.00 Build 0)  -->
<svg version="1.1" id="Calque_1" xmlns="http://www.w3.org/2000/svg" xmlns:xlink="http://www.w3.org/1999/xlink" x="0px" y="0px"
	 viewBox="0 0 100 100" style="enable-background:new 0 0 100 100;" xml:space="preserve">
<style type="text/css">
	.st0{fill:#FFFFFF;stroke:#FFFFFF;stroke-miterlimit:10;}
</style>
<path class="st0" d="M27.8,50.7h42.7L56.9,64.3c-0.3,0.3-0.3,0.7,0,1s0.7,0.3,1,0l14.8-14.8c0.1-0.1,0.1-0.1,0.1-0.2
	c0.1-0.1,0.1-0.4,0-0.6c-0.1-0.1-0.1-0.1-0.1-0.2L58,34.6c-0.1-0.1-0.4-0.2-0.5-0.2c-0.2,0-0.4,0.1-0.5,0.2c-0.3,0.3-0.3,0.7,0,1
	l13.6,13.6H27.8c-0.4,0-0.7,0.3-0.7,0.7S27.3,50.7,27.8,50.7z"/>
</svg>
