<?xml version="1.0" encoding="utf-8"?>
<!-- Generator: Adobe Illustrator 21.0.2, SVG Export Plug-In . SVG Version: 6.00 Build 0)  -->
<svg version="1.1" id="Calque_1" xmlns="http://www.w3.org/2000/svg" xmlns:xlink="http://www.w3.org/1999/xlink" x="0px" y="0px"
	 viewBox="0 0 100 125" style="enable-background:new 0 0 100 125;" xml:space="preserve">
<style type="text/css">
	.st0{fill:#FFFFFF;}
</style>
<title>3Artboard 13</title>
<path class="st0" d="M19.7,70l0.2,0.3c0.2,0.3,0.5,0.7,0.7,1l26.1,37.4c1.3,1.8,3.8,2.3,5.7,1c0.4-0.3,0.7-0.6,1-1l26-37.4
	c0.2-0.3,0.5-0.7,0.7-1l0.2-0.2l0,0c10.8-16.7,6-39-10.7-49.8s-39-6-49.8,10.7C12.1,42.9,12.1,58.2,19.7,70L19.7,70z M50,35.6
	c8.3,0,15,6.7,15,15s-6.7,15-15,15s-15-6.7-15-15l0,0C35,42.3,41.7,35.6,50,35.6z"/>
</svg>
