<?xml version="1.0" encoding="utf-8"?>
<!-- Generator: Adobe Illustrator 21.0.2, SVG Export Plug-In . SVG Version: 6.00 Build 0)  -->
<svg version="1.1" id="Calque_1" xmlns="http://www.w3.org/2000/svg" xmlns:xlink="http://www.w3.org/1999/xlink" x="0px" y="0px"
	 viewBox="0 0 100 99.7" style="enable-background:new 0 0 100 99.7;" xml:space="preserve">
<style type="text/css">
	.st0{fill:#FFFFFF;}
</style>
<g>
	<g>
		<path class="st0" d="M33.5,64.2c-1.8-3.3-3.3-7.8-7.2-11.4c-3.8-3.6-3.5-12.6-3.5-12.6l3.9-2.7l-3.9-3l2.1-7.8c0,0-2-7.8-2.1-11.5
			c-10.1,8-16.7,20.5-16.7,34.4c0,21.6,15.5,39.5,36,43.2c-0.8-1.9-1.8-4.4-2.6-6.9C37.7,80.6,35.3,67.5,33.5,64.2z"/>
		<path class="st0" d="M50,5.8c-8.7,0-16.8,2.5-23.6,6.9c0.5,3.5,3.5-0.5,3.5-0.5s3.1,3.9,1,5.1s-5,3-5,3v6c0,0,3.1-1.5,5.7-2.1
			s8.4-2.7,12,0.6s4.5,5.1,6,5.1s2.7,1.5,2.1,3.6c-0.6,2.1-2.1,4.8-2.1,4.8s0.3,3.3,3.6,2.1s4.8,0.9,6.3,2.4s5.7,2.7,5.7,2.7
			s1.2,5.7-1.5,8.4c-2.7,2.7-4.2,6.6-4.2,9.3c0,2.7-6,5.7-9.6,7.8c-3.6,2.1-2.7,8.4-2.8,10.5s-0.8,9.3,0.7,11.7
			c0.2,0.2,0.3,0.5,0.4,0.7c0.6,0,1.1,0,1.7,0c24.3,0,43.9-19.7,43.9-43.9C93.9,25.4,74.3,5.8,50,5.8z"/>
	</g>
</g>
</svg>
