<?xml version="1.0" encoding="utf-8"?>
<!-- Generator: Adobe Illustrator 21.0.2, SVG Export Plug-In . SVG Version: 6.00 Build 0)  -->
<svg version="1.1" id="Calque_1" xmlns="http://www.w3.org/2000/svg" xmlns:xlink="http://www.w3.org/1999/xlink" x="0px" y="0px"
	 viewBox="0 0 100 125" style="enable-background:new 0 0 100 125;" xml:space="preserve">
<style type="text/css">
	.st0{fill:#FFFFFF;}
</style>
<path class="st0" d="M61.9,32.8c-5.6-5.6-12.9-8.6-20.8-8.6s-15.2,3.1-20.8,8.6c-5.6,5.6-8.6,12.9-8.6,20.8s3.1,15.2,8.6,20.8
	c5.6,5.6,12.9,8.6,20.8,8.6c7.9,0,15.2-3.1,20.8-8.6C73.4,62.9,73.4,44.2,61.9,32.8z M59.1,71.6c-4.8,4.8-11.2,7.4-18,7.4
	s-13.2-2.6-18-7.4c-4.8-4.8-7.4-11.2-7.4-18s2.6-13.2,7.4-18s11.2-7.4,18-7.4s13.2,2.6,18,7.4C69,45.5,69,61.6,59.1,71.6z
	 M87.8,97.4L71,80.7c-0.8-0.8-2-0.8-2.8,0s-0.8,2,0,2.8l16.8,16.8c0.4,0.4,0.9,0.6,1.4,0.6s1-0.2,1.4-0.6
	C88.5,99.5,88.5,98.2,87.8,97.4z"/>
</svg>
